name rise38.3101peak57.3503fall81.6963.mot
datacolumns 19
datarows 60
range 6.246651 6.344982
endheader
time	ground_force1_vx	ground_force1_vy	ground_force1_vz	ground_force1_px	ground_force1_py	ground_force1_pz	ground_force2_vx	ground_force2_vy	ground_force2_vz	ground_force2_px	ground_force2_py	ground_force2_pz	ground_torque1_x	ground_torque1_y	ground_torque1_z	ground_torque2_x	ground_torque2_y	ground_torque2_z	
6.246651	0.000000	0.000000	0.000000	0.000000	0.000000	0.000000	-18.340839	724.332470	-41.590830	0.191834	0.000000	-0.076882	0.000000	0.000000	0.000000	0.000000	-20.611011	0.000000	
6.248318	0.000000	0.000000	0.000000	0.000000	0.000000	0.000000	-18.843605	725.732201	-41.670769	0.190921	0.000000	-0.076879	0.000000	0.000000	0.000000	0.000000	-20.677475	0.000000	
6.249992	0.000000	0.000000	0.000000	0.000000	0.000000	0.000000	-19.350616	727.150243	-41.758047	0.190012	0.000000	-0.076876	0.000000	0.000000	0.000000	0.000000	-20.745299	0.000000	
6.251646	0.000000	0.000000	0.000000	0.000000	0.000000	0.000000	-19.861858	728.586547	-41.852961	0.189106	0.000000	-0.076874	0.000000	0.000000	0.000000	0.000000	-20.814477	0.000000	
6.253313	0.000000	0.000000	0.000000	0.000000	0.000000	0.000000	-20.377304	730.041018	-41.955793	0.188204	0.000000	-0.076871	0.000000	0.000000	0.000000	0.000000	-20.884994	0.000000	
6.254985	0.000000	0.000000	0.000000	0.000000	0.000000	0.000000	-20.896915	731.513504	-42.066814	0.187305	0.000000	-0.076870	0.000000	0.000000	0.000000	0.000000	-20.956831	0.000000	
6.256649	0.000000	0.000000	0.000000	0.000000	0.000000	0.000000	-21.420639	733.003791	-42.186277	0.186409	0.000000	-0.076868	0.000000	0.000000	0.000000	0.000000	-21.029962	0.000000	
6.258314	0.000000	0.000000	0.000000	0.000000	0.000000	0.000000	-21.948410	734.511601	-42.314418	0.185515	0.000000	-0.076868	0.000000	0.000000	0.000000	0.000000	-21.104354	0.000000	
6.259976	0.000000	0.000000	0.000000	0.000000	0.000000	0.000000	-22.480148	736.036582	-42.451457	0.184624	0.000000	-0.076867	0.000000	0.000000	0.000000	0.000000	-21.179969	0.000000	
6.261644	0.000000	0.000000	0.000000	0.000000	0.000000	0.000000	-23.015758	737.578309	-42.597588	0.183734	0.000000	-0.076868	0.000000	0.000000	0.000000	0.000000	-21.256757	0.000000	
6.263319	0.000000	0.000000	0.000000	0.000000	0.000000	0.000000	-23.555129	739.136273	-42.752989	0.182846	0.000000	-0.076869	0.000000	0.000000	0.000000	0.000000	-21.334666	0.000000	
6.264981	0.000000	0.000000	0.000000	0.000000	0.000000	0.000000	-24.098134	740.709880	-42.917812	0.181959	0.000000	-0.076870	0.000000	0.000000	0.000000	0.000000	-21.413632	0.000000	
6.266646	0.000000	0.000000	0.000000	0.000000	0.000000	0.000000	-24.644630	742.298448	-43.092184	0.181072	0.000000	-0.076873	0.000000	0.000000	0.000000	0.000000	-21.493586	0.000000	
6.268318	0.000000	0.000000	0.000000	0.000000	0.000000	0.000000	-25.194459	743.901201	-43.276206	0.180185	0.000000	-0.076876	0.000000	0.000000	0.000000	0.000000	-21.574451	0.000000	
6.269979	0.000000	0.000000	0.000000	0.000000	0.000000	0.000000	-25.747444	745.517271	-43.469953	0.179299	0.000000	-0.076880	0.000000	0.000000	0.000000	0.000000	-21.656140	0.000000	
6.271645	0.000000	0.000000	0.000000	0.000000	0.000000	0.000000	-26.303390	747.145691	-43.673470	0.178411	0.000000	-0.076885	0.000000	0.000000	0.000000	0.000000	-21.738560	0.000000	
6.273317	0.000000	0.000000	0.000000	0.000000	0.000000	0.000000	-26.862087	748.785395	-43.886774	0.177522	0.000000	-0.076891	0.000000	0.000000	0.000000	0.000000	-21.821609	0.000000	
6.274977	0.000000	0.000000	0.000000	0.000000	0.000000	0.000000	-27.423307	750.435218	-44.109848	0.176632	0.000000	-0.076898	0.000000	0.000000	0.000000	0.000000	-21.905179	0.000000	
6.276644	0.000000	0.000000	0.000000	0.000000	0.000000	0.000000	-27.986805	752.093894	-44.342647	0.175740	0.000000	-0.076905	0.000000	0.000000	0.000000	0.000000	-21.989150	0.000000	
6.278312	0.000000	0.000000	0.000000	0.000000	0.000000	0.000000	-28.552318	753.760056	-44.585090	0.174845	0.000000	-0.076914	0.000000	0.000000	0.000000	0.000000	-22.073400	0.000000	
6.279984	0.000000	0.000000	0.000000	0.000000	0.000000	0.000000	-29.119569	755.432239	-44.837064	0.173948	0.000000	-0.076923	0.000000	0.000000	0.000000	0.000000	-22.157795	0.000000	
6.281646	0.000000	0.000000	0.000000	0.000000	0.000000	0.000000	-29.688262	757.108878	-45.098422	0.173047	0.000000	-0.076934	0.000000	0.000000	0.000000	0.000000	-22.242197	0.000000	
6.283318	0.000000	0.000000	0.000000	0.000000	0.000000	0.000000	-30.258088	758.788311	-45.368981	0.172144	0.000000	-0.076945	0.000000	0.000000	0.000000	0.000000	-22.326458	0.000000	
6.284982	0.000000	0.000000	0.000000	0.000000	0.000000	0.000000	-30.828720	760.468782	-45.648523	0.171236	0.000000	-0.076957	0.000000	0.000000	0.000000	0.000000	-22.410426	0.000000	
6.286649	0.000000	0.000000	0.000000	0.000000	0.000000	0.000000	-31.399818	762.148443	-45.936795	0.170325	0.000000	-0.076971	0.000000	0.000000	0.000000	0.000000	-22.493943	0.000000	
6.288321	0.000000	0.000000	0.000000	0.000000	0.000000	0.000000	-31.971031	763.825358	-46.233506	0.169411	0.000000	-0.076985	0.000000	0.000000	0.000000	0.000000	-22.576842	0.000000	
6.289980	0.000000	0.000000	0.000000	0.000000	0.000000	0.000000	-32.541992	765.497507	-46.538333	0.168492	0.000000	-0.077000	0.000000	0.000000	0.000000	0.000000	-22.658955	0.000000	
6.291643	0.000000	0.000000	0.000000	0.000000	0.000000	0.000000	-33.112325	767.162790	-46.850914	0.167569	0.000000	-0.077016	0.000000	0.000000	0.000000	0.000000	-22.740105	0.000000	
6.293315	0.000000	0.000000	0.000000	0.000000	0.000000	0.000000	-33.681641	768.819033	-47.170851	0.166642	0.000000	-0.077033	0.000000	0.000000	0.000000	0.000000	-22.820115	0.000000	
6.294988	0.000000	0.000000	0.000000	0.000000	0.000000	0.000000	-34.249547	770.463990	-47.497712	0.165710	0.000000	-0.077050	0.000000	0.000000	0.000000	0.000000	-22.898800	0.000000	
6.296646	0.000000	0.000000	0.000000	0.000000	0.000000	0.000000	-34.815637	772.095354	-47.831031	0.164775	0.000000	-0.077069	0.000000	0.000000	0.000000	0.000000	-22.975976	0.000000	
6.298318	0.000000	0.000000	0.000000	0.000000	0.000000	0.000000	-35.379503	773.710760	-48.170308	0.163835	0.000000	-0.077088	0.000000	0.000000	0.000000	0.000000	-23.051453	0.000000	
6.299978	0.000000	0.000000	0.000000	0.000000	0.000000	0.000000	-35.940732	775.307790	-48.515006	0.162892	0.000000	-0.077107	0.000000	0.000000	0.000000	0.000000	-23.125043	0.000000	
6.301652	0.000000	0.000000	0.000000	0.000000	0.000000	0.000000	-36.498906	776.883984	-48.864561	0.161945	0.000000	-0.077127	0.000000	0.000000	0.000000	0.000000	-23.196553	0.000000	
6.303318	0.000000	0.000000	0.000000	0.000000	0.000000	0.000000	-37.053608	778.436842	-49.218375	0.160994	0.000000	-0.077147	0.000000	0.000000	0.000000	0.000000	-23.265793	0.000000	
6.304978	0.000000	0.000000	0.000000	0.000000	0.000000	0.000000	-37.604422	779.963835	-49.575821	0.160041	0.000000	-0.077168	0.000000	0.000000	0.000000	0.000000	-23.332572	0.000000	
6.306643	0.000000	0.000000	0.000000	0.000000	0.000000	0.000000	-38.150935	781.462410	-49.936243	0.159084	0.000000	-0.077189	0.000000	0.000000	0.000000	0.000000	-23.396701	0.000000	
6.308317	0.000000	0.000000	0.000000	0.000000	0.000000	0.000000	-38.692738	782.929997	-50.298959	0.158125	0.000000	-0.077210	0.000000	0.000000	0.000000	0.000000	-23.457993	0.000000	
6.309979	0.000000	0.000000	0.000000	0.000000	0.000000	0.000000	-39.229429	784.364021	-50.663260	0.157163	0.000000	-0.077231	0.000000	0.000000	0.000000	0.000000	-23.516265	0.000000	
6.311651	0.000000	0.000000	0.000000	0.000000	0.000000	0.000000	-39.760616	785.761900	-51.028417	0.156200	0.000000	-0.077252	0.000000	0.000000	0.000000	0.000000	-23.571335	0.000000	
6.313315	0.000000	0.000000	0.000000	0.000000	0.000000	0.000000	-40.285916	787.121061	-51.393675	0.155235	0.000000	-0.077273	0.000000	0.000000	0.000000	0.000000	-23.623028	0.000000	
6.314979	0.000000	0.000000	0.000000	0.000000	0.000000	0.000000	-40.804962	788.438944	-51.758262	0.154270	0.000000	-0.077294	0.000000	0.000000	0.000000	0.000000	-23.671175	0.000000	
6.316649	0.000000	0.000000	0.000000	0.000000	0.000000	0.000000	-41.317399	789.713007	-52.121389	0.153303	0.000000	-0.077314	0.000000	0.000000	0.000000	0.000000	-23.715611	0.000000	
6.318315	0.000000	0.000000	0.000000	0.000000	0.000000	0.000000	-41.822892	790.940734	-52.482249	0.152337	0.000000	-0.077333	0.000000	0.000000	0.000000	0.000000	-23.756180	0.000000	
6.319985	0.000000	0.000000	0.000000	0.000000	0.000000	0.000000	-42.321123	792.119643	-52.840025	0.151372	0.000000	-0.077352	0.000000	0.000000	0.000000	0.000000	-23.792732	0.000000	
6.321651	0.000000	0.000000	0.000000	0.000000	0.000000	0.000000	-42.811797	793.247288	-53.193886	0.150408	0.000000	-0.077370	0.000000	0.000000	0.000000	0.000000	-23.825127	0.000000	
6.323316	0.000000	0.000000	0.000000	0.000000	0.000000	0.000000	-43.294641	794.321271	-53.542995	0.149445	0.000000	-0.077387	0.000000	0.000000	0.000000	0.000000	-23.853234	0.000000	
6.324980	0.000000	0.000000	0.000000	0.000000	0.000000	0.000000	-43.769408	795.339239	-53.886506	0.148485	0.000000	-0.077403	0.000000	0.000000	0.000000	0.000000	-23.876929	0.000000	
6.326646	0.000000	0.000000	0.000000	0.000000	0.000000	0.000000	-44.235878	796.298896	-54.223572	0.147527	0.000000	-0.077418	0.000000	0.000000	0.000000	0.000000	-23.896102	0.000000	
6.328317	0.000000	0.000000	0.000000	0.000000	0.000000	0.000000	-44.693857	797.198006	-54.553341	0.146573	0.000000	-0.077432	0.000000	0.000000	0.000000	0.000000	-23.910651	0.000000	
6.329983	0.000000	0.000000	0.000000	0.000000	0.000000	0.000000	-45.143185	798.034391	-54.874966	0.145623	0.000000	-0.077444	0.000000	0.000000	0.000000	0.000000	-23.920487	0.000000	
6.331644	0.000000	0.000000	0.000000	0.000000	0.000000	0.000000	-45.583732	798.805944	-55.187599	0.144677	0.000000	-0.077454	0.000000	0.000000	0.000000	0.000000	-23.925531	0.000000	
6.333314	0.000000	0.000000	0.000000	0.000000	0.000000	0.000000	-46.015401	799.510624	-55.490401	0.143736	0.000000	-0.077463	0.000000	0.000000	0.000000	0.000000	-23.925717	0.000000	
6.334979	0.000000	0.000000	0.000000	0.000000	0.000000	0.000000	-46.438129	800.146462	-55.782539	0.142800	0.000000	-0.077469	0.000000	0.000000	0.000000	0.000000	-23.920991	0.000000	
6.336647	0.000000	0.000000	0.000000	0.000000	0.000000	0.000000	-46.851889	800.711561	-56.063191	0.141871	0.000000	-0.077474	0.000000	0.000000	0.000000	0.000000	-23.911311	0.000000	
6.338316	0.000000	0.000000	0.000000	0.000000	0.000000	0.000000	-47.256691	801.204101	-56.331548	0.140948	0.000000	-0.077477	0.000000	0.000000	0.000000	0.000000	-23.896648	0.000000	
6.339979	0.000000	0.000000	0.000000	0.000000	0.000000	0.000000	-47.652581	801.622333	-56.586814	0.140033	0.000000	-0.077477	0.000000	0.000000	0.000000	0.000000	-23.876985	0.000000	
6.341647	0.000000	0.000000	0.000000	0.000000	0.000000	0.000000	-48.039643	801.964585	-56.828213	0.139124	0.000000	-0.077475	0.000000	0.000000	0.000000	0.000000	-23.852320	0.000000	
6.343314	0.000000	0.000000	0.000000	0.000000	0.000000	0.000000	-48.418001	802.229260	-57.054984	0.138224	0.000000	-0.077470	0.000000	0.000000	0.000000	0.000000	-23.822660	0.000000	
6.344982	0.000000	0.000000	0.000000	0.000000	0.000000	0.000000	-48.787815	802.414833	-57.266389	0.137332	0.000000	-0.077463	0.000000	0.000000	0.000000	0.000000	-23.788028	0.000000	
